<?xml version="1.0" encoding="UTF-8" standalone="no"?>
<!DOCTYPE svg  PUBLIC '-//W3C//DTD SVG 1.1//EN'  'http://www.w3.org/Graphics/SVG/1.1/DTD/svg11.dtd'>
<svg xmlns="http://www.w3.org/2000/svg" version="1.1">
<defs>
<font id="YuGothic-Regular" vert-adv-y="2048" horiz-adv-x="1143">
<font-face ascent="1802" font-family="Yu Gothic" x-height="1069" panose-1="2 11 4 0 0 0 0 0 0 0" underline-thickness="104" unicode-range="U+0021-00FE" units-per-em="2048" cap-height="1538" font-weight="400" bbox="35 -451 1962 2017" descent="-246" underline-position="-361"/>
<missing-glyph/>
<glyph horiz-adv-x="584" unicode=" " glyph-name="uni00A0" d="M0 0z"/>
<glyph horiz-adv-x="584" unicode=" " glyph-name="uni00A0" d="M0 0z"/>
<glyph horiz-adv-x="680" unicode="!" glyph-name="exclam" d="M426 1538l-36 -1075h-101l-37 1075h174zM441 246v-201h-203v201h203z"/>
<glyph horiz-adv-x="834" unicode='&quot;' glyph-name="quotedbl" d="M307 1538l-43 -504h-82l-35 504h160zM686 1538l-43 -504h-80l-37 504h160z"/>
<glyph horiz-adv-x="1192" unicode="#" glyph-name="numbersign" d="M993 1538l-92 -446h201l-23 -104h-201l-79 -390h200l-22 -106h-199l-94 -447h-86l92 447h-311l-94 -447h-89l97 447h-201l25 106h196l80 390h-201l25 104h199l92 446h86l-92 -446h313l90 446h88zM794 988h-315l-82 -390h316z"/>
<glyph horiz-adv-x="1184" unicode="$" glyph-name="dollar" d="M641 1692v-154q294 -26 377 -336l-123 -41q-45 257 -254 277v-592q231 -68 323 -180q78 -94 78 -246q0 -194 -129 -302q-106 -89 -272 -100v-168h-86v168q-181 12 -287 110q-97 90 -145 263l117 47q33 -172 120 -247q71 -61 195 -74v631q-217 60 -307 171q-74 93 -74 238 q0 175 126 283q104 91 255 98v154h86zM555 1438q-127 -7 -198 -88q-64 -73 -64 -189q0 -126 64 -193q61 -64 198 -102v572zM641 729v-614q145 9 216 97q62 76 62 202q0 132 -72 205q-63 64 -206 110z"/>
<glyph horiz-adv-x="1642" unicode="%" glyph-name="percent" d="M428 1538q143 0 223 -107q74 -98 74 -264q0 -189 -96 -289q-79 -83 -203 -83q-142 0 -221 107q-74 98 -74 263q0 189 96 290q79 83 201 83zM426 1450q-189 0 -189 -285q0 -282 189 -282q188 0 188 282q0 285 -188 285zM1323 1538l-911 -1520h-101l914 1520h98zM1214 760 q143 0 223 -107q74 -98 74 -264q0 -190 -96 -290q-79 -83 -203 -83q-142 0 -221 107q-74 98 -74 264q0 188 96 289q79 84 201 84zM1212 672q-189 0 -189 -285q0 -283 189 -283q188 0 188 283q0 285 -188 285z"/>
<glyph horiz-adv-x="1473" unicode="&amp;" glyph-name="ampersand" d="M1286 735q-19 -156 -71 -288q-47 -121 -111 -191q76 -83 143 -109q56 -22 151 -22l-32 -102h-29q-112 0 -185 39q-61 32 -130 110q-169 -154 -416 -154q-219 0 -351 136q-114 118 -114 290q0 168 92 281q79 96 240 170q-115 178 -115 326q0 144 106 237q91 80 220 80 q151 0 238 -91q75 -80 75 -204q0 -141 -97 -233q-89 -83 -276 -146q197 -303 412 -545q103 147 133 445zM520 825q-152 -77 -209 -172q-49 -81 -49 -205q0 -151 114 -247q100 -85 242 -85q207 0 340 122q-241 271 -438 587zM579 938q182 67 246 144q53 65 53 169 q0 89 -60 143q-54 48 -134 48q-95 0 -156 -69q-53 -60 -53 -146q0 -76 26 -144q23 -58 78 -145z"/>
<glyph horiz-adv-x="457" unicode="&apos;" glyph-name="quotesingle" d="M309 1538l-43 -504h-84l-35 504h162z"/>
<glyph horiz-adv-x="791" unicode="(" glyph-name="parenleft" d="M715 1728q-202 -251 -284 -489q-72 -208 -72 -461q0 -288 95 -523q84 -208 261 -427l-53 -43q-233 244 -331 490q-91 227 -91 503q0 313 119 566q100 213 303 425z"/>
<glyph horiz-adv-x="791" unicode=")" glyph-name="parenright" d="M129 1769q232 -242 331 -489q91 -227 91 -502q0 -314 -119 -567q-99 -212 -303 -426l-53 43q202 249 284 488q72 209 72 462q0 288 -95 523q-83 206 -261 427z"/>
<glyph horiz-adv-x="975" unicode="*" glyph-name="asterisk" d="M559 1538l-41 -319l258 190l68 -119l-301 -125l301 -127l-68 -116l-260 196l43 -323h-141l41 321l-258 -192l-70 116l301 127l-301 125l70 119l258 -192l-41 319h141z"/>
<glyph horiz-adv-x="1483" unicode="+" glyph-name="plus" d="M166 666h526v526h94v-526h530v-92h-530v-529h-94v529h-526v92z"/>
<glyph horiz-adv-x="528" unicode="," glyph-name="comma" d="M367 248v-203l-111 -279h-86l103 279h-111v203h205z"/>
<glyph horiz-adv-x="528" unicode="." glyph-name="period" d="M367 254v-209h-205v209h205z"/>
<glyph horiz-adv-x="991" unicode="/" glyph-name="slash" d="M944 1710l-797 -1876h-102l797 1876h102z"/>
<glyph horiz-adv-x="1139" unicode="0" glyph-name="zero" d="M572 1538q436 0 436 -752q0 -768 -441 -768q-436 0 -436 764q0 756 441 756zM572 1425q-166 0 -237 -165q-67 -154 -67 -474q0 -369 84 -524q71 -131 215 -131q166 0 238 173q66 158 66 480q0 365 -85 515q-71 126 -214 126z"/>
<glyph horiz-adv-x="1139" unicode="1" glyph-name="one" d="M660 1534v-1380h276v-109h-698v109h295v1241q-130 -89 -301 -154l-23 119q170 57 346 174h105z"/>
<glyph horiz-adv-x="1139" unicode="2" glyph-name="two" d="M147 1151q41 202 169 302q108 85 266 85q188 0 298 -113q99 -101 99 -264q0 -131 -71 -241q-67 -102 -238 -256q-289 -253 -406 -506h717v-113h-846v101q127 304 443 593q168 157 221 249q45 78 45 173q0 131 -83 203q-71 61 -181 61q-252 0 -304 -307z"/>
<glyph horiz-adv-x="1139" unicode="3" glyph-name="three" d="M148 1255q57 146 176 219q102 64 238 64q184 0 298 -112q101 -98 101 -244q0 -145 -85 -238q-73 -79 -196 -108v-13q160 -36 243 -146q73 -97 73 -233q0 -204 -136 -323q-117 -103 -294 -103q-323 0 -447 279l123 53q53 -126 139 -177q73 -44 185 -44q143 0 224 96 q71 84 71 215q0 164 -103 247q-93 75 -258 75h-115v117h103q175 0 264 89q76 76 76 203q0 128 -86 198q-72 58 -183 58q-108 0 -185 -62q-71 -57 -103 -159z"/>
<glyph horiz-adv-x="1139" unicode="4" glyph-name="four" d="M817 1532v-1029h217v-106h-217v-352h-117v352h-602v100l541 1035h178zM700 503v613q0 61 4 311h-20q-62 -151 -134 -287l-327 -637h477z"/>
<glyph horiz-adv-x="1139" unicode="5" glyph-name="five" d="M930 1513v-113h-605l-18 -389q-2 -44 -12 -172q46 75 129 117q74 37 158 37q185 0 299 -144q102 -130 102 -329q0 -248 -144 -387q-118 -115 -290 -115q-302 0 -410 273l125 53q75 -215 285 -215q146 0 227 116q72 103 72 269q0 186 -86 284q-75 84 -199 84 q-100 0 -176 -61q-66 -54 -98 -144l-107 17l35 819h713z"/>
<glyph horiz-adv-x="1139" unicode="6" glyph-name="six" d="M973 1346l-123 -60q-63 141 -215 141q-344 0 -356 -669q139 223 348 223q178 0 284 -142q93 -125 93 -319q0 -246 -133 -385q-111 -117 -279 -117q-213 0 -330 191q-110 178 -110 495q0 450 149 661q123 173 338 173q230 0 334 -192zM283 629q2 -265 101 -395 q80 -105 208 -105q139 0 213 114q66 101 66 275q0 175 -81 269q-70 81 -183 81q-192 0 -324 -239z"/>
<glyph horiz-adv-x="1139" unicode="7" glyph-name="seven" d="M989 1513v-103q-210 -336 -315 -679q-95 -307 -127 -686h-146q41 419 168 767q103 285 287 584h-717v117h850z"/>
<glyph horiz-adv-x="1139" unicode="8" glyph-name="eight" d="M686 825q195 -86 270 -192q62 -87 62 -215q0 -199 -142 -308q-120 -92 -308 -92q-215 0 -338 118q-111 106 -111 277q0 140 89 236q77 83 243 160q-166 79 -231 174q-56 80 -56 197q0 167 126 269q111 89 277 89q194 0 310 -112q100 -97 100 -240q0 -134 -73 -219 q-67 -76 -218 -142zM586 872q159 68 217 149q47 64 47 163q0 119 -88 188q-76 60 -195 60q-134 0 -210 -78q-66 -68 -66 -174q0 -103 62 -169q59 -62 198 -122zM555 760q-178 -80 -247 -165q-60 -74 -60 -177q0 -144 97 -222q84 -69 223 -69q162 0 248 88q73 75 73 201 q0 116 -73 191q-67 68 -226 136z"/>
<glyph horiz-adv-x="1139" unicode="9" glyph-name="nine" d="M299 264q70 -135 211 -135q176 0 261 171q81 162 91 497q-120 -220 -338 -220q-179 0 -290 143q-99 127 -99 318q0 240 131 380q111 120 279 120q221 0 336 -189q106 -175 106 -495q0 -836 -477 -836q-233 0 -332 183zM856 926q-5 258 -94 387q-78 114 -213 114 q-140 0 -215 -118q-66 -102 -66 -271q0 -170 86 -267q74 -83 187 -83q193 0 315 238z"/>
<glyph horiz-adv-x="582" unicode=":" glyph-name="colon" d="M393 1069v-209h-205v209h205zM393 254v-209h-205v209h205z"/>
<glyph horiz-adv-x="582" unicode=";" glyph-name="semicolon" d="M393 1069v-207h-205v207h205zM393 248v-203l-111 -279h-86l103 279h-111v203h205z"/>
<glyph horiz-adv-x="1483" unicode="&lt;" glyph-name="less" d="M1317 1190v-103l-1049 -466l1049 -469v-101l-1151 520v97z"/>
<glyph horiz-adv-x="1483" unicode="=" glyph-name="equal" d="M166 498h1151v-90h-1151v90zM166 829h1151v-90h-1151v90z"/>
<glyph horiz-adv-x="1483" unicode="&gt;" glyph-name="greater" d="M166 1190l1151 -522v-97l-1151 -520v101l1049 469l-1049 466v103z"/>
<glyph horiz-adv-x="1065" unicode="?" glyph-name="question" d="M111 1198q37 189 164 285q109 82 264 82q187 0 298 -111q97 -97 97 -247q0 -106 -54 -193q-49 -78 -165 -184q-97 -88 -125 -164q-25 -67 -26 -203h-105v51q0 138 41 223q34 72 119 156q113 107 150 180q30 58 30 133q0 118 -78 186q-70 60 -180 60q-256 0 -301 -287z M615 246v-201h-203v201h203z"/>
<glyph horiz-adv-x="1769" unicode="@" glyph-name="at" d="M1300 1157l-184 -512q-20 -56 -20 -104q0 -28 28 -48q26 -18 58 -18q148 0 265 146q109 135 109 313q0 262 -196 418q-170 135 -426 135q-328 0 -536 -236q-181 -203 -181 -489q0 -324 213 -509q185 -161 471 -161q425 0 623 326l61 -47q-221 -355 -686 -355 q-369 0 -584 238q-184 203 -184 508q0 219 108 406q106 181 287 288q187 109 408 109q327 0 529 -203q175 -176 175 -430q0 -236 -164 -401q-138 -138 -307 -138t-172 148q-48 -76 -124 -115q-61 -31 -124 -31q-124 0 -192 75q-62 68 -62 185q0 224 163 395q140 146 306 146 q76 0 124 -46q44 -40 57 -110l39 117h118zM1108 948q-16 168 -144 168q-133 0 -247 -163q-99 -142 -99 -302q0 -84 40 -132q38 -44 101 -44q87 0 158 64q65 59 103 161z"/>
<glyph horiz-adv-x="1329" unicode="A" glyph-name="A" d="M752 1538l493 -1493h-143l-158 493h-563l-162 -493h-135l494 1493h174zM913 647l-124 389q-67 203 -119 396h-19q-54 -200 -116 -394l-123 -391h501z"/>
<glyph horiz-adv-x="1391" unicode="B" glyph-name="B" d="M231 1538h477q274 0 393 -106q99 -89 99 -257q0 -143 -104 -234q-88 -78 -234 -99v-11q196 -24 297 -133q88 -95 88 -237q0 -211 -154 -321q-133 -95 -356 -95h-506v1493zM364 1425v-534h291q209 0 316 85q90 72 90 191q0 144 -92 203q-87 55 -279 55h-326zM364 778v-620 h354q388 0 388 307q0 153 -128 237q-117 76 -315 76h-299z"/>
<glyph horiz-adv-x="1397" unicode="C" glyph-name="C" d="M1282 1151l-133 -41q-86 338 -392 338q-223 0 -352 -193q-119 -176 -119 -464q0 -329 153 -509q127 -149 318 -149q322 0 406 344l131 -49q-128 -412 -539 -412q-285 0 -456 230q-156 209 -156 542q0 384 201 599q166 178 411 178q212 0 354 -125q122 -107 173 -289z"/>
<glyph horiz-adv-x="1526" unicode="D" glyph-name="D" d="M231 1538h442q360 0 543 -207q166 -188 166 -532q0 -392 -231 -590q-190 -164 -504 -164h-416v1493zM366 1423v-1263h277q298 0 452 174q144 163 144 463q0 626 -578 626h-295z"/>
<glyph horiz-adv-x="1268" unicode="E" glyph-name="E" d="M1150 1538v-117h-784v-522h592v-117h-592v-620h799v-117h-934v1493h919z"/>
<glyph horiz-adv-x="1245" unicode="F" glyph-name="F" d="M1148 1538v-117h-782v-526h590v-117h-590v-733h-135v1493h917z"/>
<glyph horiz-adv-x="1487" unicode="G" glyph-name="G" d="M1280 1163l-131 -39q-89 324 -390 324q-224 0 -354 -193q-119 -176 -119 -465q0 -331 148 -508q125 -149 323 -149q214 0 321 177q84 138 87 353h-422v115h549v-737h-96l-17 254q-63 -144 -187 -216q-107 -63 -243 -63q-287 0 -454 229q-152 207 -152 543q0 383 202 599 q166 178 412 178q209 0 351 -124q119 -104 172 -278z"/>
<glyph horiz-adv-x="1526" unicode="H" glyph-name="H" d="M1294 1538v-1493h-135v729h-793v-729h-135v1493h135v-647h793v647h135z"/>
<glyph horiz-adv-x="598" unicode="I" glyph-name="I" d="M366 1538v-1493h-135v1493h135z"/>
<glyph horiz-adv-x="819" unicode="J" glyph-name="J" d="M588 1538v-1132q0 -208 -130 -312q-99 -78 -245 -78q-40 0 -137 9l-8 114q67 -10 139 -10q114 0 182 81q66 78 66 214v1114h133z"/>
<glyph horiz-adv-x="1417" unicode="K" glyph-name="K" d="M1271 1538l-563 -602l625 -891h-162l-551 801l-256 -266v-535h-133v1493h133v-805l737 805h170z"/>
<glyph horiz-adv-x="1223" unicode="L" glyph-name="L" d="M366 1538v-1376h760v-117h-895v1493h135z"/>
<glyph horiz-adv-x="1882" unicode="M" glyph-name="M" d="M1650 1538v-1493h-129v940l2 442h-23q-30 -102 -141 -434l-336 -948h-174l-331 948q-73 208 -144 434h-22q-1 -43 -1 -90l3 -354v-938h-123v1493h227l324 -936q80 -228 147 -438h21q115 343 147 432l328 942h225z"/>
<glyph horiz-adv-x="1532" unicode="N" glyph-name="N" d="M1300 1538v-1493h-174l-539 967q-83 154 -213 409h-20q4 -319 4 -448v-928h-127v1493h209l514 -922q92 -171 213 -419h20q-14 265 -14 465v876h127z"/>
<glyph horiz-adv-x="1499" unicode="O" glyph-name="O" d="M749 1565q286 0 454 -229q152 -208 152 -543q0 -384 -195 -598q-164 -179 -411 -179q-286 0 -454 230q-152 208 -152 542q0 384 197 599q164 178 409 178zM749 1448q-223 0 -349 -192q-114 -174 -114 -465q0 -332 147 -510q123 -148 316 -148q224 0 350 193 q113 174 113 465q0 333 -146 509q-122 148 -317 148z"/>
<glyph horiz-adv-x="1354" unicode="P" glyph-name="P" d="M231 1538h481q269 0 398 -121q110 -103 110 -287q0 -208 -151 -319q-136 -99 -369 -99h-334v-667h-135v1493zM366 1425v-602h326q387 0 387 305q0 297 -375 297h-338z"/>
<glyph horiz-adv-x="1499" unicode="Q" glyph-name="Q" d="M1282 -162l-15 -117q-88 -12 -188 -12q-153 0 -219 51q-55 42 -94 154l-39 104q-276 5 -438 235q-146 208 -146 535q0 383 197 597q164 178 409 178q286 0 454 -229q152 -207 152 -541q0 -344 -158 -556q-132 -176 -337 -213l24 -71q28 -84 75 -111q43 -24 134 -24 q101 0 189 20zM749 1446q-223 0 -349 -192q-114 -174 -114 -463q0 -333 147 -512q123 -150 316 -150q224 0 350 195q113 176 113 467q0 332 -146 508q-122 147 -317 147z"/>
<glyph horiz-adv-x="1370" unicode="R" glyph-name="R" d="M231 1538h489q504 0 504 -383q0 -151 -94 -251q-84 -91 -234 -124l365 -735h-149l-343 714q-24 -2 -79 -2h-326v-712h-133v1493zM364 1425v-557h334q385 0 385 285q0 146 -97 211q-91 61 -276 61h-346z"/>
<glyph horiz-adv-x="1286" unicode="S" glyph-name="S" d="M1116 1219l-135 -43q-85 274 -344 274q-161 0 -249 -82q-77 -71 -77 -184q0 -134 84 -203q73 -58 244 -100l60 -17q277 -70 374 -185q76 -89 76 -247q0 -202 -150 -315q-134 -101 -354 -101q-212 0 -352 107q-123 95 -176 262l135 51q81 -307 391 -307q194 0 289 92 q76 75 76 199q0 138 -81 207q-78 66 -275 116l-52 15q-253 65 -348 175q-78 91 -78 245q0 173 133 283q126 104 328 104q359 0 481 -346z"/>
<glyph horiz-adv-x="1288" unicode="T" glyph-name="T" d="M1191 1538v-117h-481v-1376h-135v1376h-479v117h1095z"/>
<glyph horiz-adv-x="1511" unicode="U" glyph-name="U" d="M1284 1538v-1001q0 -275 -174 -412q-138 -109 -355 -109q-253 0 -393 141q-135 136 -135 380v1001h135v-995q0 -221 123 -325q101 -85 274 -85q199 0 301 112q95 104 95 298v995h129z"/>
<glyph horiz-adv-x="1329" unicode="V" glyph-name="V" d="M1245 1538l-497 -1493h-175l-489 1493h147l291 -926q29 -90 72 -236q50 -167 63 -212h21q64 229 131 444l299 930h137z"/>
<glyph horiz-adv-x="1905" unicode="W" glyph-name="W" d="M1812 1538l-362 -1493h-178l-217 922q-47 201 -95 452h-22q-37 -214 -94 -448l-224 -926h-180l-348 1493h143l199 -911q31 -143 90 -457h23q84 418 92 448l221 920h186l215 -926q6 -23 93 -442h22q8 37 47 239q23 117 43 205l209 924h137z"/>
<glyph horiz-adv-x="1327" unicode="X" glyph-name="X" d="M1214 1538l-475 -717l504 -776h-158l-364 573q-41 66 -64 101q-27 -47 -63 -103l-358 -571h-152l498 772l-463 721h155l326 -516l68 -104q14 20 36 57q23 38 31 51l328 512h151z"/>
<glyph horiz-adv-x="1329" unicode="Y" glyph-name="Y" d="M1245 1538l-518 -858v-635h-137v635l-506 858h156l362 -629q21 -34 63 -110q15 23 38 62q22 38 32 54l362 623h148z"/>
<glyph horiz-adv-x="1264" unicode="Z" glyph-name="Z" d="M1145 1538v-101l-872 -1277h878v-115h-1042v101l868 1277h-827v115h995z"/>
<glyph horiz-adv-x="791" unicode="[" glyph-name="bracketleft" d="M704 1747v-76h-317v-1785h317v-74h-430v1935h430z"/>
<glyph horiz-adv-x="1169" unicode="¥" glyph-name="yen" d="M1071 1538l-277 -547h244v-80h-276l-113 -213v-4h389v-82h-393v-567h-129v567h-389v82h385v4l-109 213h-276v80h241l-272 547h141l289 -619q2 -5 59 -131q47 99 64 137l285 613h137z"/>
<glyph horiz-adv-x="1169" unicode="\" glyph-name="yen" d="M1071 1538l-277 -547h244v-80h-276l-113 -213v-4h389v-82h-393v-567h-129v567h-389v82h385v4l-109 213h-276v80h241l-272 547h141l289 -619q2 -5 59 -131q47 99 64 137l285 613h137z"/>
<glyph horiz-adv-x="791" unicode="]" glyph-name="bracketright" d="M516 1745v-1933h-430v74h317v1785h-317v74h430z"/>
<glyph horiz-adv-x="1034" unicode="^" glyph-name="asciicircum" d="M567 1548l383 -706h-106l-326 622l-330 -622h-104l381 706h102z"/>
<glyph unicode="a" glyph-name="a" d="M176 831q92 263 403 263q363 0 363 -340v-361q0 -205 25 -348h-119q-13 59 -23 180q-135 -205 -370 -205q-163 0 -249 94q-73 79 -73 203q0 278 346 336q135 23 340 33v55q0 146 -64 203q-56 50 -178 50q-220 0 -282 -206zM819 592q-154 -3 -313 -33q-246 -50 -246 -236 q0 -100 64 -154q57 -49 153 -49q206 0 342 222v250z"/>
<glyph horiz-adv-x="1188" unicode="b" glyph-name="b" d="M332 1565v-656q122 185 313 185t303 -159q101 -144 101 -374q0 -264 -136 -415q-114 -126 -280 -126q-194 0 -309 191l-23 -166h-96v1520h127zM332 778v-450q115 -199 283 -199q143 0 226 126q77 115 77 304q0 215 -92 329q-77 95 -199 95q-182 0 -295 -205z"/>
<glyph horiz-adv-x="1057" unicode="c" glyph-name="c" d="M954 801l-125 -37q-55 226 -260 226q-151 0 -233 -128q-72 -114 -72 -303q0 -220 94 -336q80 -99 211 -99q216 0 271 230l122 -41q-96 -293 -393 -293q-212 0 -331 163q-105 143 -105 372q0 262 137 411q118 128 299 128q151 0 253 -84q93 -75 132 -209z"/>
<glyph horiz-adv-x="1184" unicode="d" glyph-name="d" d="M983 1565v-1520h-123v158q-114 -183 -309 -183q-193 0 -308 163q-104 147 -104 378q0 263 131 410q109 123 275 123q192 0 311 -179v650h127zM856 778q-108 205 -291 205q-142 0 -222 -124q-73 -112 -73 -300q0 -217 99 -333q81 -97 206 -97q168 0 281 199v450z"/>
<glyph unicode="e" glyph-name="e" d="M1007 547h-743q0 -215 104 -331q87 -96 222 -96q221 0 290 220l119 -45q-106 -275 -411 -275q-215 0 -339 163q-110 144 -110 372q0 260 141 411q119 128 297 128q203 0 323 -157q107 -140 107 -357v-33zM880 643q-14 178 -104 270q-77 79 -197 79q-138 0 -224 -107 q-76 -93 -87 -242h612z"/>
<glyph horiz-adv-x="707" unicode="f" glyph-name="f" d="M665 1556l-18 -104q-44 9 -94 9q-89 0 -127 -46q-33 -40 -33 -125v-221h242v-102h-242v-922h-127v922h-190v102h190v225q0 271 272 271q46 0 127 -9z"/>
<glyph horiz-adv-x="1122" unicode="g" glyph-name="g" d="M1034 1194l-10 -117q-82 0 -133 -22q-41 -18 -84 -60q108 -87 108 -239q0 -165 -120 -259q-101 -79 -255 -79q-92 0 -170 32q-102 -57 -102 -122q0 -55 44 -75q43 -19 173 -32l201 -20q208 -22 288 -93q60 -53 60 -149q0 -135 -136 -213q-128 -72 -343 -72 q-229 0 -350 78q-103 67 -103 174q0 77 63 138q54 53 146 83q-156 34 -156 150q0 101 142 198q-129 93 -129 259q0 162 124 259q103 81 250 81q115 0 197 -47q59 83 133 117q66 30 162 30zM542 1004q-115 0 -187 -74q-66 -68 -66 -176q0 -121 83 -190q68 -56 169 -56 q116 0 187 73q66 67 66 173q0 124 -84 193q-68 57 -168 57zM419 123q-200 -55 -200 -181q0 -93 107 -140q88 -38 233 -38q182 0 279 59q79 49 79 123q0 68 -58 102q-60 35 -204 50z"/>
<glyph horiz-adv-x="1188" unicode="h" glyph-name="h" d="M332 1565v-682q174 211 370 211q138 0 217 -87q70 -77 70 -200v-762h-129v707q0 227 -190 227q-176 0 -338 -213v-721h-127v1520h127z"/>
<glyph horiz-adv-x="537" unicode="i" glyph-name="i" d="M332 1069v-1024h-127v1024h127zM362 1481v-191h-188v191h188z"/>
<glyph horiz-adv-x="602" unicode="j" glyph-name="j" d="M389 1069v-1104q0 -147 -87 -224q-75 -67 -202 -67q-26 0 -55 4l-10 107q22 -4 55 -4q172 0 172 206v1082h127zM420 1481v-191h-188v191h188z"/>
<glyph horiz-adv-x="1085" unicode="k" glyph-name="k" d="M985 1069l-362 -387l393 -637h-143l-336 553l-205 -213v-340h-127v1520h127v-1039l498 543h155z"/>
<glyph horiz-adv-x="537" unicode="l" glyph-name="l" d="M332 1565v-1520h-127v1520h127z"/>
<glyph horiz-adv-x="1763" unicode="m" glyph-name="m" d="M326 1069v-190q160 215 346 215q112 0 188 -68q66 -58 78 -145q156 213 348 213q135 0 211 -87q68 -77 68 -202v-760h-127v707q0 227 -187 227q-85 0 -173 -66q-74 -56 -132 -147v-721h-127v707q0 227 -180 227q-85 0 -171 -63q-77 -55 -138 -150v-721h-125v1024h121z "/>
<glyph horiz-adv-x="1188" unicode="n" glyph-name="n" d="M328 1069v-190q172 215 374 215q139 0 217 -87q70 -77 70 -202v-760h-129v707q0 227 -190 227q-178 0 -338 -213v-721h-127v1024h123z"/>
<glyph horiz-adv-x="1149" unicode="o" glyph-name="o" d="M575 1094q205 0 326 -162q108 -145 108 -371q0 -262 -139 -412q-118 -129 -297 -129q-208 0 -328 164q-106 144 -106 371q0 262 138 411q118 128 298 128zM575 990q-152 0 -233 -128q-72 -113 -72 -303q0 -220 92 -336q80 -99 211 -99q151 0 233 129q72 114 72 306 q0 217 -92 332q-80 99 -211 99z"/>
<glyph horiz-adv-x="1188" unicode="p" glyph-name="p" d="M328 1069v-164q121 189 315 189q193 0 305 -159q101 -144 101 -374q0 -264 -136 -415q-113 -126 -280 -126q-191 0 -301 187v-533h-127v1395h123zM332 778v-450q115 -199 283 -199q143 0 226 126q77 115 77 305q0 216 -92 332q-77 96 -199 96q-182 0 -295 -210z"/>
<glyph horiz-adv-x="1184" unicode="q" glyph-name="q" d="M983 1069v-1395h-127v527q-109 -181 -305 -181q-193 0 -308 162q-104 147 -104 379q0 263 131 410q109 123 275 123q200 0 317 -185l23 160h98zM856 778q-109 210 -291 210q-142 0 -222 -125q-73 -114 -73 -303q0 -218 99 -334q82 -97 208 -97q166 0 279 199v450z"/>
<glyph horiz-adv-x="745" unicode="r" glyph-name="r" d="M670 1094l-10 -127q-108 0 -200 -93q-86 -86 -130 -229v-600h-125v1024h121v-266q60 153 162 229q84 62 182 62z"/>
<glyph horiz-adv-x="1042" unicode="s" glyph-name="s" d="M883 852l-123 -43q-58 185 -250 185q-116 0 -179 -51q-54 -44 -54 -113q0 -86 54 -127q48 -37 171 -64l82 -18q190 -44 261 -116q65 -65 65 -184q0 -141 -109 -223q-103 -78 -280 -78q-309 0 -404 248l123 47q68 -195 283 -195q142 0 210 65q52 50 52 124q0 95 -54 137 q-51 39 -190 70l-82 19q-181 41 -248 116q-55 61 -55 168q0 129 101 204q94 71 255 71q277 0 371 -242z"/>
<glyph horiz-adv-x="721" unicode="t" glyph-name="t" d="M383 1436v-367h258v-102h-258v-666q0 -181 152 -181q66 0 133 15l-9 -104q-64 -11 -145 -11q-258 0 -258 256v691h-176v102h176v338z"/>
<glyph horiz-adv-x="1190" unicode="u" glyph-name="u" d="M985 1069v-1024h-123v195q-69 -109 -178 -168q-94 -52 -194 -52q-138 0 -217 83q-74 76 -74 204v762h129v-723q0 -213 196 -213q95 0 193 69q85 60 141 150v717h127z"/>
<glyph horiz-adv-x="1001" unicode="v" glyph-name="v" d="M924 1069l-344 -1024h-158l-344 1024h137l197 -629q16 -53 84 -295h18q64 232 86 304l195 620h129z"/>
<glyph horiz-adv-x="1589" unicode="w" glyph-name="w" d="M1510 1069l-310 -1024h-157l-172 633q-33 121 -68 289h-23q-43 -206 -65 -289l-172 -633h-158l-305 1024h137l168 -637q39 -152 70 -287h22q64 277 66 285l170 639h164l170 -631q22 -82 65 -293h23q35 163 71 291l174 633h130z"/>
<glyph horiz-adv-x="1001" unicode="x" glyph-name="x" d="M895 1069l-325 -494l354 -530h-144l-227 354q-11 18 -30 47q-17 28 -27 43q-21 -32 -58 -90l-221 -354h-139l348 526l-330 498h144l203 -324q27 -44 61 -92l59 101l193 315h139z"/>
<glyph horiz-adv-x="1008" unicode="y" glyph-name="y" d="M928 1069l-387 -1077q-65 -184 -162 -257q-80 -61 -201 -61q-51 0 -92 8l-10 111q55 -12 102 -12q94 0 153 61q53 53 97 172l19 49l-365 1006h137l222 -660q20 -61 61 -206h10q15 43 37 114q23 71 31 97l217 655h131z"/>
<glyph horiz-adv-x="942" unicode="z" glyph-name="z" d="M827 1069v-86l-590 -838h605v-100h-748v90l588 834h-557v100h702z"/>
<glyph horiz-adv-x="791" unicode="{" glyph-name="braceleft" d="M705 1763v-70h-12q-160 0 -217 -57q-49 -49 -49 -168v-426q0 -193 -189 -264q189 -75 189 -266v-426q0 -135 66 -183q58 -43 200 -43h12v-69h-26q-214 0 -294 77q-69 66 -69 214v428q0 205 -164 231v72q164 25 164 229v432q0 168 92 232q82 57 271 57h26z"/>
<glyph horiz-adv-x="782" unicode="|" glyph-name="bar" d="M438 1722v-1888h-94v1888h94z"/>
<glyph horiz-adv-x="791" unicode="}" glyph-name="braceright" d="M85 1763h27q213 0 292 -76q68 -65 68 -213v-432q0 -203 166 -229v-72q-166 -26 -166 -231v-428q0 -169 -90 -233q-82 -58 -270 -58h-27v69h12q160 0 217 57q50 50 50 169v426q0 191 188 266q-188 71 -188 264v426q0 134 -67 183q-59 42 -200 42h-12v70z"/>
<glyph horiz-adv-x="680" unicode="¡" glyph-name="exclamdown" d="M424 -424h-174l37 1075h101zM441 868h-203v201h203v-201z"/>
<glyph horiz-adv-x="1137" unicode="¢" glyph-name="cent" d="M649 1513v-192q130 -10 220 -93q81 -75 118 -200l-123 -39q-46 210 -215 230v-869q177 15 227 228l119 -37q-90 -272 -346 -291v-205h-86v205q-188 15 -292 174q-93 140 -93 358q0 246 121 395q103 127 264 144v192h86zM563 1217q-131 -17 -198 -142q-60 -111 -60 -289 q0 -205 77 -320q67 -99 181 -114v865z"/>
<glyph horiz-adv-x="1186" unicode="£" glyph-name="sterling" d="M979 1214l-125 -38q-49 253 -297 253q-124 0 -200 -86q-66 -75 -66 -182q0 -84 30 -164q15 -42 79 -178q21 -38 47 -94h317v-82h-286q28 -83 28 -172q0 -152 -145 -262q8 2 26 2q105 0 213 -41q115 -41 185 -41q121 0 217 145l84 -88q-124 -168 -303 -168q-99 0 -219 51 q-124 48 -207 48q-93 0 -172 -74l-62 80l35 20q233 154 233 324q0 88 -36 176h-242v82h207l-29 55q-82 150 -106 224q-25 74 -25 159q0 174 131 283q111 92 268 92q339 0 420 -324z"/>
<glyph horiz-adv-x="1174" unicode="¤" glyph-name="currency" d="M1036 1180l-125 -123q92 -119 92 -262q0 -142 -92 -260l127 -125l-65 -64l-123 127q-124 -96 -264 -96q-139 0 -263 96l-122 -127l-66 64l127 122q-94 118 -94 263q0 138 94 262l-127 123l68 61l122 -123q113 92 261 92q146 0 262 -92l123 125zM586 1122 q-147 0 -244 -108q-84 -93 -84 -220q0 -146 108 -244q93 -85 220 -85q146 0 243 109q84 93 84 220q0 147 -108 244q-93 84 -219 84z"/>
<glyph horiz-adv-x="782" unicode="¦" glyph-name="brokenbar" d="M438 1720v-770h-94v770h94zM438 594v-760h-94v760h94z"/>
<glyph horiz-adv-x="2048" unicode="§" glyph-name="section" d="M1392 1462l-116 -43q-62 191 -242 191q-108 0 -168 -61q-49 -49 -49 -123q0 -98 52 -154q45 -49 165 -107l158 -75q182 -88 242 -170q46 -65 46 -166q0 -108 -74 -184q-64 -66 -171 -95q87 -65 120 -143q27 -63 27 -158q0 -154 -112 -247q-97 -81 -242 -81 q-278 0 -369 256l115 48q66 -202 254 -202q108 0 175 72q56 62 56 148q0 105 -55 170q-52 63 -182 129l-181 94q-162 80 -222 161q-52 72 -52 177q0 101 76 174q63 62 170 92q-115 99 -115 252q0 138 100 219q91 74 236 74q269 0 358 -248zM897 1106q-99 -18 -156 -71 q-53 -50 -53 -122q0 -84 52 -141q44 -48 149 -102l176 -90q56 -25 84 -43q102 16 157 75q49 51 49 125q0 80 -50 136q-47 54 -158 108l-160 76q-51 24 -90 49z"/>
<glyph horiz-adv-x="2048" unicode="¨" glyph-name="dieresis" d="M934 1901v-168h-162v168h162zM1290 1901v-168h-162v168h162z"/>
<glyph horiz-adv-x="1823" unicode="©" glyph-name="copyright" d="M1267 1016l-108 -29q-61 193 -223 193q-126 0 -203 -114q-71 -105 -71 -272q0 -190 91 -298q75 -89 183 -89q179 0 231 199l107 -35q-83 -262 -340 -262q-184 0 -292 145q-97 131 -97 338q0 240 126 374q105 112 263 112q132 0 222 -79q78 -68 111 -183zM909 1565 q211 0 391 -106q175 -102 277 -277q106 -181 106 -392q0 -210 -106 -390q-102 -175 -277 -277q-180 -105 -391 -105t-390 105q-175 102 -277 277q-105 180 -105 390q0 211 105 392q102 175 277 277q180 106 390 106zM909 1491q-312 0 -518 -231q-178 -199 -178 -469 q0 -314 228 -520q197 -179 468 -179q312 0 519 229q179 199 179 470q0 311 -230 520q-199 180 -468 180z"/>
<glyph horiz-adv-x="791" unicode="ª" glyph-name="ordfeminine" d="M141 1405q55 164 260 164q236 0 236 -213v-230q0 -134 14 -217h-94q-8 39 -14 115q-87 -129 -221 -129q-108 0 -164 59q-45 48 -45 125q0 184 221 221q81 14 205 21v27q0 145 -138 145q-127 0 -165 -115zM539 1245q-117 -3 -183 -18q-145 -33 -145 -143q0 -51 37 -82 q34 -27 86 -27q119 0 205 135v135z"/>
<glyph horiz-adv-x="942" unicode="«" glyph-name="guillemotleft" d="M469 563v94l270 308h82l-229 -353l229 -356h-82zM141 563v94l268 308h84l-233 -353l233 -356h-84z"/>
<glyph horiz-adv-x="1483" unicode="¬" glyph-name="logicalnot" d="M1299 191h-94v514h-1038v92h1132v-606z"/>
<glyph horiz-adv-x="1483" unicode="­" glyph-name="uni00AD" d="M1317 666v-92h-1151v92h1151z"/>
<glyph horiz-adv-x="1225" unicode="®" glyph-name="registered" d="M438 1360h197q194 0 194 -143q0 -112 -110 -146l120 -237h-90l-114 231q-9 -2 -33 -2h-80v-229h-84v526zM522 1290v-159h100q123 0 123 86q0 73 -119 73h-104zM612 1565q209 0 351 -157q122 -135 122 -317q0 -209 -157 -351q-135 -122 -316 -122q-209 0 -351 157 q-122 135 -122 316q0 210 157 352q135 122 316 122zM612 1504q-184 0 -305 -135q-105 -117 -105 -278q0 -185 134 -306q116 -106 276 -106q184 0 305 135q105 117 105 277q0 186 -134 307q-116 106 -276 106z"/>
<glyph horiz-adv-x="2048" unicode="°" glyph-name="degree" d="M310 1579q108 0 179 -78q62 -68 62 -161q0 -109 -79 -180q-68 -62 -162 -62q-109 0 -181 79q-63 69 -63 163q0 108 80 178q69 61 164 61zM310 1497q-76 0 -121 -50q-39 -43 -39 -107q0 -76 50 -122q44 -40 110 -40q73 0 118 51q39 45 39 111q0 73 -50 118q-43 39 -107 39 z"/>
<glyph horiz-adv-x="2048" unicode="±" glyph-name="plusminus" d="M1069 1484v-440h530v-88h-530v-446h-94v446h-526v88h526v440h94zM1600 371v-90h-1151v90h1151z"/>
<glyph horiz-adv-x="743" unicode="²" glyph-name="uni00B2" d="M121 1487q49 205 262 205q118 0 185 -62q57 -53 57 -137q0 -81 -44 -140q-36 -49 -136 -130q-154 -124 -221 -240h401v-84h-510v72q73 149 245 299q100 84 128 127q26 40 26 96q0 52 -41 84q-37 29 -92 29q-130 0 -160 -146z"/>
<glyph horiz-adv-x="743" unicode="³" glyph-name="uni00B3" d="M116 1536q69 156 252 156q119 0 184 -60q56 -51 56 -131q0 -149 -152 -182v-8q176 -50 176 -199q0 -109 -80 -172q-70 -55 -182 -55q-190 0 -270 153l94 41q53 -110 176 -110q77 0 119 45q37 39 37 98q0 152 -190 152h-70v86h65q173 0 173 145q0 53 -43 85q-38 28 -94 28 q-118 0 -156 -107z"/>
<glyph horiz-adv-x="2048" unicode="´" glyph-name="acute" d="M1070 1989h170l-195 -283h-84z"/>
<glyph horiz-adv-x="1194" unicode="µ" glyph-name="mu" d="M991 1069v-858q0 -95 80 -95q31 0 51 3l-12 -99q-25 -2 -62 -2q-96 0 -137 44q-38 40 -41 122l-2 47q-113 -211 -325 -211q-145 0 -211 97v-443h-127v1395h127v-717q0 -115 71 -175q59 -48 152 -48q100 0 188 68q74 57 123 151v721h125z"/>
<glyph horiz-adv-x="2048" unicode="¶" glyph-name="paragraph" d="M1444 1702v-80h-145v-1784h-90v1784h-195v-1784h-90v1028q-152 0 -277 101q-143 116 -143 321q0 224 171 333q128 81 321 81h448z"/>
<glyph horiz-adv-x="743" unicode="¹" glyph-name="uni00B9" d="M429 1689v-708h152v-82h-420v82h166v604q-47 -33 -168 -78l-14 86q127 46 194 96h90z"/>
<glyph horiz-adv-x="791" unicode="º" glyph-name="ordmasculine" d="M398 1569q134 0 209 -102q67 -89 67 -234q0 -165 -86 -258q-74 -80 -190 -80q-137 0 -214 102q-67 90 -67 234q0 166 87 259q75 79 194 79zM398 1489q-86 0 -136 -78q-45 -69 -45 -178q0 -125 58 -196q48 -60 123 -60q83 0 132 78q44 69 44 178q0 125 -56 196 q-48 60 -120 60z"/>
<glyph horiz-adv-x="942" unicode="»" glyph-name="guillemotright" d="M473 563l-270 -307h-82l229 356l-229 353h82l270 -308v-94zM801 563l-268 -307h-84l231 356l-231 353h84l268 -308v-94z"/>
<glyph horiz-adv-x="1642" unicode="¼" glyph-name="onequarter" d="M1382 1538l-920 -1520h-96l922 1520h94zM429 1534v-709h154v-82h-420v82h164v604q-38 -27 -166 -75l-16 84q127 46 194 96h90zM1419 836v-543h123v-78h-123v-170h-94v170h-348v72l305 549h137zM1325 293v332l2 133h-14q-40 -95 -58 -127l-186 -338h256z"/>
<glyph horiz-adv-x="1642" unicode="½" glyph-name="onehalf" d="M1335 1538l-922 -1520h-94l920 1520h96zM429 1536v-709h154v-82h-420v82h164v604q-38 -27 -166 -75l-16 84q127 46 194 96h90zM1019 631q49 207 263 207q117 0 184 -62q57 -54 57 -139q0 -79 -44 -138q-36 -49 -136 -130q-150 -121 -221 -240h401v-84h-510v72 q76 151 246 299q99 84 127 127q26 40 26 94t-41 86q-37 29 -92 29q-130 0 -159 -148z"/>
<glyph horiz-adv-x="1642" unicode="¾" glyph-name="threequarters" d="M1372 1538l-920 -1520h-94l920 1520h94zM116 1384q69 154 252 154q119 0 184 -60q56 -50 56 -128q0 -152 -152 -185v-8q176 -48 176 -197q0 -111 -80 -174q-70 -55 -182 -55q-190 0 -270 154l94 41q53 -111 176 -111q77 0 119 46q37 39 37 99q0 150 -190 150h-70v86h65 q173 0 173 147q0 52 -43 83q-38 28 -94 28q-117 0 -156 -104zM1419 836v-543h123v-78h-123v-170h-94v170h-348v72l305 549h137zM1325 293v332l2 133h-14q-40 -95 -58 -127l-186 -338h256z"/>
<glyph horiz-adv-x="1065" unicode="¿" glyph-name="questiondown" d="M954 -84q-37 -190 -163 -285q-108 -82 -265 -82q-187 0 -298 111q-97 97 -97 247q0 105 54 193q49 78 165 184q98 88 125 164q25 67 27 203h104v-51q0 -138 -40 -223q-35 -72 -120 -156q-113 -107 -150 -180q-30 -58 -30 -133q0 -118 78 -186q70 -60 180 -60 q257 0 301 286zM450 868v201h203v-201h-203z"/>
<glyph horiz-adv-x="1329" unicode="À" glyph-name="Agrave" d="M627 1989l108 -283h-86l-192 283h170zM752 1538l493 -1493h-143l-158 493h-563l-162 -493h-135l494 1493h174zM913 647l-124 389q-67 203 -119 396h-19q-54 -200 -116 -394l-123 -391h501z"/>
<glyph horiz-adv-x="1329" unicode="Á" glyph-name="Aacute" d="M711 1989h170l-195 -283h-84zM752 1538l493 -1493h-143l-158 493h-563l-162 -493h-135l494 1493h174zM913 647l-124 389q-67 203 -119 396h-19q-54 -200 -116 -394l-123 -391h501z"/>
<glyph horiz-adv-x="1329" unicode="Â" glyph-name="Acircumflex" d="M741 1989l189 -283h-88l-172 201l-172 -201h-86l188 283h141zM752 1538l493 -1493h-143l-158 493h-563l-162 -493h-135l494 1493h174zM913 647l-124 389q-67 203 -119 396h-19q-54 -200 -116 -394l-123 -391h501z"/>
<glyph horiz-adv-x="1329" unicode="Ã" glyph-name="Atilde" d="M922 1915q-12 -189 -127 -189q-48 0 -131 39q-85 39 -109 39q-52 0 -65 -78h-74q14 187 131 187q37 0 133 -42q86 -39 113 -39q43 0 57 83h72zM752 1538l493 -1493h-143l-158 493h-563l-162 -493h-135l494 1493h174zM913 647l-124 389q-67 203 -119 396h-19 q-54 -200 -116 -394l-123 -391h501z"/>
<glyph horiz-adv-x="1329" unicode="Ä" glyph-name="Adieresis" d="M573 1901v-168h-161v168h161zM930 1901v-168h-162v168h162zM752 1538l493 -1493h-143l-158 493h-563l-162 -493h-135l494 1493h174zM913 647l-124 389q-67 203 -119 396h-19q-54 -200 -116 -394l-123 -391h501z"/>
<glyph horiz-adv-x="1329" unicode="Å" glyph-name="Aring" d="M674 2017q78 0 129 -57q45 -49 45 -117q0 -76 -57 -128q-50 -46 -117 -46q-77 0 -128 58q-44 50 -44 116q0 79 56 130q49 44 116 44zM674 1951q-47 0 -78 -35q-26 -30 -26 -73q0 -48 34 -80q29 -28 70 -28q48 0 80 36q28 31 28 72q0 49 -36 81q-31 27 -72 27zM752 1538 l493 -1493h-143l-158 493h-563l-162 -493h-135l494 1493h174zM913 647l-124 389q-67 203 -119 396h-19q-54 -200 -116 -394l-123 -391h501z"/>
<glyph horiz-adv-x="2064" unicode="Æ" glyph-name="AE" d="M1949 1538v-117h-782v-522h590v-115h-590v-622h795v-117h-928v495h-516l-285 -495h-149l868 1493h997zM1034 1431h-23q-137 -259 -210 -391l-228 -391h461v782z"/>
<glyph horiz-adv-x="1397" unicode="Ç" glyph-name="Ccedilla" d="M708 18q-267 21 -423 246q-142 206 -142 524q0 384 201 599q166 178 411 178q212 0 354 -125q122 -107 173 -289l-133 -41q-86 338 -392 338q-223 0 -352 -193q-119 -176 -119 -464q0 -329 153 -509q127 -149 318 -149q322 0 406 344l131 -49q-122 -396 -504 -412 l-80 -139q42 10 82 10q88 0 133 -46q39 -39 39 -104q0 -84 -70 -130q-64 -42 -172 -42q-77 0 -153 27l31 70q60 -23 116 -23q70 0 107 29q32 25 32 65q0 88 -104 88q-55 0 -92 -20l-57 22z"/>
<glyph horiz-adv-x="1268" unicode="È" glyph-name="Egrave" d="M649 1989l108 -283h-86l-192 283h170zM1150 1538v-117h-784v-522h592v-117h-592v-620h799v-117h-934v1493h919z"/>
<glyph horiz-adv-x="1268" unicode="É" glyph-name="Eacute" d="M745 1989h170l-195 -283h-83zM1150 1538v-117h-784v-522h592v-117h-592v-620h799v-117h-934v1493h919z"/>
<glyph horiz-adv-x="1268" unicode="Ê" glyph-name="Ecircumflex" d="M776 1989l188 -283h-88l-172 201l-172 -201h-86l188 283h142zM1150 1538v-117h-784v-522h592v-117h-592v-620h799v-117h-934v1493h919z"/>
<glyph horiz-adv-x="1268" unicode="Ë" glyph-name="Edieresis" d="M593 1901v-168h-161v168h161zM950 1901v-168h-162v168h162zM1150 1538v-117h-784v-522h592v-117h-592v-620h799v-117h-934v1493h919z"/>
<glyph horiz-adv-x="598" unicode="Ì" glyph-name="Igrave" d="M258 1989l109 -283h-86l-195 283h172zM367 1538v-1493h-135v1493h135z"/>
<glyph horiz-adv-x="598" unicode="Í" glyph-name="Iacute" d="M340 1989h172l-197 -283h-84zM366 1538v-1493h-135v1493h135z"/>
<glyph horiz-adv-x="598" unicode="Î" glyph-name="Icircumflex" d="M372 1989l177 -283h-86l-162 201l-160 -201h-86l178 283h139zM366 1538v-1493h-135v1493h135z"/>
<glyph horiz-adv-x="598" unicode="Ï" glyph-name="Idieresis" d="M219 1901v-166h-156v166h156zM544 1901v-166h-155v166h155zM366 1538v-1493h-135v1493h135z"/>
<glyph horiz-adv-x="1526" unicode="Ð" glyph-name="Eth" d="M232 786h-162v86h162v666h442q360 0 543 -207q166 -189 166 -533q0 -392 -231 -589q-191 -164 -505 -164h-415v741zM367 786v-626h276q299 0 453 174q144 163 144 462q0 627 -578 627h-295v-551h328v-86h-328z"/>
<glyph horiz-adv-x="1532" unicode="Ñ" glyph-name="Ntilde" d="M1046 1913q-12 -189 -127 -189q-48 0 -131 39q-85 39 -108 39q-53 0 -66 -78h-74q15 187 131 187q38 0 133 -42q86 -39 113 -39q44 0 55 83h74zM1300 1538v-1493h-174l-539 967q-83 154 -213 409h-20q4 -319 4 -448v-928h-127v1493h209l514 -922q92 -171 213 -419h20 q-14 265 -14 465v876h127z"/>
<glyph horiz-adv-x="1499" unicode="Ò" glyph-name="Ograve" d="M704 1989l109 -283h-86l-193 283h170zM749 1565q286 0 454 -229q152 -208 152 -543q0 -384 -195 -598q-164 -179 -411 -179q-286 0 -454 230q-152 208 -152 542q0 384 197 599q164 178 409 178zM749 1448q-223 0 -349 -192q-114 -174 -114 -465q0 -332 147 -510 q123 -148 316 -148q224 0 350 193q113 174 113 465q0 333 -146 509q-122 148 -317 148z"/>
<glyph horiz-adv-x="1499" unicode="Ó" glyph-name="Oacute" d="M798 1989h170l-194 -283h-84zM749 1565q286 0 454 -229q152 -208 152 -543q0 -384 -195 -598q-164 -179 -411 -179q-286 0 -454 230q-152 208 -152 542q0 384 197 599q164 178 409 178zM749 1448q-223 0 -349 -192q-114 -174 -114 -465q0 -332 147 -510 q123 -148 316 -148q224 0 350 193q113 174 113 465q0 333 -146 509q-122 148 -317 148z"/>
<glyph horiz-adv-x="1499" unicode="Ô" glyph-name="Ocircumflex" d="M831 1989l189 -283h-89l-172 201l-172 -201h-86l189 283h141zM749 1565q286 0 454 -229q152 -208 152 -543q0 -384 -195 -598q-164 -179 -411 -179q-286 0 -454 230q-152 208 -152 542q0 384 197 599q164 178 409 178zM749 1448q-223 0 -349 -192q-114 -174 -114 -465 q0 -332 147 -510q123 -148 316 -148q224 0 350 193q113 174 113 465q0 333 -146 509q-122 148 -317 148z"/>
<glyph horiz-adv-x="1499" unicode="Õ" glyph-name="Otilde" d="M1007 1913q-12 -189 -127 -189q-48 0 -131 39q-85 39 -108 39q-52 0 -66 -78h-74q15 187 131 187q38 0 134 -42q85 -39 112 -39q44 0 58 83h71zM749 1565q286 0 454 -229q152 -208 152 -543q0 -384 -195 -598q-164 -179 -411 -179q-286 0 -454 230q-152 208 -152 542 q0 384 197 599q164 178 409 178zM749 1448q-223 0 -349 -192q-114 -174 -114 -465q0 -332 147 -510q123 -148 316 -148q224 0 350 193q113 174 113 465q0 333 -146 509q-122 148 -317 148z"/>
<glyph horiz-adv-x="1499" unicode="Ö" glyph-name="Odieresis" d="M657 1901v-168h-162v168h162zM1013 1901v-168h-161v168h161zM749 1565q286 0 454 -229q152 -208 152 -543q0 -384 -195 -598q-164 -179 -411 -179q-286 0 -454 230q-152 208 -152 542q0 384 197 599q164 178 409 178zM749 1448q-223 0 -349 -192q-114 -174 -114 -465 q0 -332 147 -510q123 -148 316 -148q224 0 350 193q113 174 113 465q0 333 -146 509q-122 148 -317 148z"/>
<glyph horiz-adv-x="2048" unicode="×" glyph-name="multiply" d="M960 778l-440 439l66 63l438 -436l438 436l66 -63l-441 -439l441 -440l-64 -62l-440 439l-441 -441l-63 64z"/>
<glyph horiz-adv-x="1499" unicode="Ø" glyph-name="Oslash" d="M332 201l-146 -183l-63 50l158 198q-138 206 -138 523q0 383 197 598q164 178 410 178q255 0 417 -185l148 185l63 -49l-159 -201q137 -206 137 -523q0 -383 -196 -597q-163 -179 -410 -179q-256 0 -418 185zM416 305q125 -172 334 -172q224 0 350 193q113 174 113 464 q0 248 -84 412zM1086 1276q-126 172 -337 172q-223 0 -349 -192q-114 -174 -114 -465q0 -247 85 -412z"/>
<glyph horiz-adv-x="1511" unicode="Ù" glyph-name="Ugrave" d="M714 1989l109 -283h-86l-193 283h170zM1284 1538v-1001q0 -275 -174 -412q-138 -109 -355 -109q-253 0 -393 141q-135 136 -135 380v1001h135v-995q0 -221 123 -325q101 -85 274 -85q199 0 301 112q95 104 95 298v995h129z"/>
<glyph horiz-adv-x="1511" unicode="Ú" glyph-name="Uacute" d="M802 1989h170l-194 -283h-84zM1284 1538v-1001q0 -275 -174 -412q-138 -109 -355 -109q-253 0 -393 141q-135 136 -135 380v1001h135v-995q0 -221 123 -325q101 -85 274 -85q199 0 301 112q95 104 95 298v995h129z"/>
<glyph horiz-adv-x="1511" unicode="Û" glyph-name="Ucircumflex" d="M837 1989l189 -283h-88l-172 201l-172 -201h-86l188 283h141zM1284 1538v-1001q0 -275 -174 -412q-138 -109 -355 -109q-253 0 -393 141q-135 136 -135 380v1001h135v-995q0 -221 123 -325q101 -85 274 -85q199 0 301 112q95 104 95 298v995h129z"/>
<glyph horiz-adv-x="1511" unicode="Ü" glyph-name="Udieresis" d="M665 1901v-168h-162v168h162zM1022 1901v-168h-162v168h162zM1284 1538v-1001q0 -275 -174 -412q-138 -109 -355 -109q-253 0 -393 141q-135 136 -135 380v1001h135v-995q0 -221 123 -325q101 -85 274 -85q199 0 301 112q95 104 95 298v995h129z"/>
<glyph horiz-adv-x="1329" unicode="Ý" glyph-name="Yacute" d="M713 1989h170l-195 -283h-84zM1245 1538l-518 -858v-635h-137v635l-506 858h156l362 -629q21 -34 63 -110q15 23 38 62q22 38 32 54l362 623h148z"/>
<glyph horiz-adv-x="1356" unicode="Þ" glyph-name="Thorn" d="M231 1538h135v-299h346q268 0 398 -121q110 -103 110 -284q0 -210 -151 -320q-136 -98 -369 -98h-334v-371h-135v1493zM366 1126v-601h326q387 0 387 307q0 294 -377 294h-336z"/>
<glyph horiz-adv-x="1253" unicode="ß" glyph-name="germandbls" d="M664 1563q155 0 240 -81q73 -70 73 -183q0 -98 -44 -163q-39 -57 -130 -116q-98 -60 -98 -127q0 -41 31 -79q33 -38 122 -108q163 -118 215 -212q41 -74 41 -181q0 -136 -99 -220q-86 -73 -210 -73q-225 0 -326 166l88 68q80 -136 234 -136q80 0 135 60q49 54 49 131 q0 91 -40 152q-45 67 -173 170q-118 92 -153 149q-29 44 -29 103t35 104q28 38 96 88q85 63 112 114q21 40 21 102q0 86 -57 131q-50 39 -136 39q-125 0 -202 -93q-72 -87 -72 -229v-1094h-125v922h-186v102h186v66q0 208 134 329q110 99 268 99z"/>
<glyph unicode="à" glyph-name="agrave" d="M539 1538l98 -276h-84l-180 276h166zM176 831q92 263 403 263q363 0 363 -340v-361q0 -205 25 -348h-119q-13 59 -23 180q-135 -205 -370 -205q-163 0 -249 94q-73 79 -73 203q0 278 346 336q135 23 340 33v55q0 146 -64 203q-56 50 -178 50q-220 0 -282 -206zM819 592 q-154 -3 -313 -33q-246 -50 -246 -236q0 -100 64 -154q57 -49 153 -49q206 0 342 222v250z"/>
<glyph unicode="á" glyph-name="aacute" d="M635 1538h166l-181 -276h-81zM176 831q92 263 403 263q363 0 363 -340v-361q0 -205 25 -348h-119q-13 59 -23 180q-135 -205 -370 -205q-163 0 -249 94q-73 79 -73 203q0 278 346 336q135 23 340 33v55q0 146 -64 203q-56 50 -178 50q-220 0 -282 -206zM819 592 q-154 -3 -313 -33q-246 -50 -246 -236q0 -100 64 -154q57 -49 153 -49q206 0 342 222v250z"/>
<glyph unicode="â" glyph-name="acircumflex" d="M655 1538l176 -276h-84l-163 194l-162 -194h-84l178 276h139zM176 831q92 263 403 263q363 0 363 -340v-361q0 -205 25 -348h-119q-13 59 -23 180q-135 -205 -370 -205q-163 0 -249 94q-73 79 -73 203q0 278 346 336q135 23 340 33v55q0 146 -64 203q-56 50 -178 50 q-220 0 -282 -206zM819 592q-154 -3 -313 -33q-246 -50 -246 -236q0 -100 64 -154q57 -49 153 -49q206 0 342 222v250z"/>
<glyph unicode="ã" glyph-name="atilde" d="M827 1470q-9 -182 -125 -182q-48 0 -120 39q-77 37 -101 37q-53 0 -63 -76h-72q12 180 129 180q38 0 123 -41q76 -37 104 -37q43 0 54 80h71zM176 831q92 263 403 263q363 0 363 -340v-361q0 -205 25 -348h-119q-13 59 -23 180q-135 -205 -370 -205q-163 0 -249 94 q-73 79 -73 203q0 278 346 336q135 23 340 33v55q0 146 -64 203q-56 50 -178 50q-220 0 -282 -206zM819 592q-154 -3 -313 -33q-246 -50 -246 -236q0 -100 64 -154q57 -49 153 -49q206 0 342 222v250z"/>
<glyph unicode="ä" glyph-name="adieresis" d="M495 1456v-162h-155v162h155zM840 1456v-162h-156v162h156zM176 831q92 263 403 263q363 0 363 -340v-361q0 -205 25 -348h-119q-13 59 -23 180q-135 -205 -370 -205q-163 0 -249 94q-73 79 -73 203q0 278 346 336q135 23 340 33v55q0 146 -64 203q-56 50 -178 50 q-220 0 -282 -206zM819 592q-154 -3 -313 -33q-246 -50 -246 -236q0 -100 64 -154q57 -49 153 -49q206 0 342 222v250z"/>
<glyph unicode="å" glyph-name="aring" d="M588 1587q76 0 125 -55q43 -47 43 -111q0 -76 -55 -126q-47 -44 -113 -44q-76 0 -125 56q-43 48 -43 114q0 74 55 123q47 43 113 43zM588 1524q-43 0 -72.5 -30t-29.5 -73q0 -47 33 -79q30 -28 69 -28q46 0 78 36q27 31 27 71q0 46 -35 77q-29 26 -70 26zM176 831 q92 263 403 263q363 0 363 -340v-361q0 -205 25 -348h-119q-13 59 -23 180q-135 -205 -370 -205q-163 0 -249 94q-73 79 -73 203q0 278 346 336q135 23 340 33v55q0 146 -64 203q-56 50 -178 50q-220 0 -282 -206zM819 592q-154 -3 -313 -33q-246 -50 -246 -236 q0 -100 64 -154q57 -49 153 -49q206 0 342 222v250z"/>
<glyph horiz-adv-x="1804" unicode="æ" glyph-name="ae" d="M870 262q-103 -139 -208 -195q-90 -47 -207 -47q-163 0 -249 94q-73 79 -73 203q0 278 344 336q133 23 334 33v55q0 147 -62 205q-54 50 -171 50q-223 0 -285 -208l-119 43q95 265 406 265q262 0 329 -183q119 183 332 183q203 0 323 -157q105 -140 105 -359v-33h-735 q0 -215 102 -331q85 -96 217 -96q225 0 291 220l119 -45q-106 -275 -412 -275q-136 0 -239 71q-90 62 -142 171zM811 592q-150 -3 -307 -33q-246 -49 -246 -236q0 -100 64 -154q58 -49 155 -49q198 0 334 224v248zM1544 643q-14 179 -105 272q-78 79 -198 79 q-133 0 -217 -107q-75 -95 -86 -244h606z"/>
<glyph horiz-adv-x="1057" unicode="ç" glyph-name="ccedilla" d="M524 22q-191 19 -297 177q-94 141 -94 356q0 263 137 411q118 128 299 128q151 0 253 -84q93 -75 132 -209l-125 -37q-55 226 -260 226q-151 0 -233 -128q-72 -114 -72 -302q0 -220 94 -336q80 -99 211 -99q216 0 271 229l122 -41q-89 -272 -356 -291l-82 -147 q41 10 82 10q88 0 133 -46q39 -39 39 -104q0 -83 -70 -128q-64 -42 -172 -42q-77 0 -153 27l31 70q60 -23 116 -23q70 0 107 29q32 24 32 63q0 88 -104 88q-55 0 -92 -20l-57 23z"/>
<glyph unicode="è" glyph-name="egrave" d="M530 1538l98 -276h-83l-179 276h164zM1007 547h-743q0 -215 104 -331q87 -96 222 -96q221 0 290 220l119 -45q-106 -275 -411 -275q-215 0 -339 163q-110 144 -110 372q0 260 141 411q119 128 297 128q203 0 323 -157q107 -140 107 -357v-33zM880 643q-14 178 -104 270 q-77 79 -197 79q-138 0 -224 -107q-76 -93 -87 -242h612z"/>
<glyph unicode="é" glyph-name="eacute" d="M637 1538h166l-181 -276h-82zM1007 547h-743q0 -215 104 -331q87 -96 222 -96q221 0 290 220l119 -45q-106 -275 -411 -275q-215 0 -339 163q-110 144 -110 372q0 260 141 411q119 128 297 128q203 0 323 -157q107 -140 107 -357v-33zM880 643q-14 178 -104 270 q-77 79 -197 79q-138 0 -224 -107q-76 -93 -87 -242h612z"/>
<glyph unicode="ê" glyph-name="ecircumflex" d="M653 1538l176 -276h-84l-164 194l-161 -194h-84l178 276h139zM1007 547h-743q0 -215 104 -331q87 -96 222 -96q221 0 290 220l119 -45q-106 -275 -411 -275q-215 0 -339 163q-110 144 -110 372q0 260 141 411q119 128 297 128q203 0 323 -157q107 -140 107 -357v-33z M880 643q-14 178 -104 270q-77 79 -197 79q-138 0 -224 -107q-76 -93 -87 -242h612z"/>
<glyph unicode="ë" glyph-name="edieresis" d="M489 1456v-162h-155v162h155zM833 1456v-162h-155v162h155zM1007 547h-743q0 -215 104 -331q87 -96 222 -96q221 0 290 220l119 -45q-106 -275 -411 -275q-215 0 -339 163q-110 144 -110 372q0 260 141 411q119 128 297 128q203 0 323 -157q107 -140 107 -357v-33z M880 643q-14 178 -104 270q-77 79 -197 79q-138 0 -224 -107q-76 -93 -87 -242h612z"/>
<glyph horiz-adv-x="537" unicode="ì" glyph-name="igrave" d="M232 1538l98 -276h-84l-180 276h166zM332 1069v-1024h-127v1024h127z"/>
<glyph horiz-adv-x="537" unicode="í" glyph-name="iacute" d="M303 1538h168l-182 -276h-82zM332 1069v-1024h-127v1024h127z"/>
<glyph horiz-adv-x="537" unicode="î" glyph-name="icircumflex" d="M340 1538l162 -276h-84l-148 196l-145 -196h-84l164 276h135zM332 1069v-1024h-127v1024h127z"/>
<glyph horiz-adv-x="537" unicode="ï" glyph-name="idieresis" d="M194 1456v-162h-147v162h147zM502 1456v-162h-148v162h148zM332 1069v-1024h-127v1024h127z"/>
<glyph horiz-adv-x="1149" unicode="ð" glyph-name="eth" d="M876 1567l41 -64l-225 -131q160 -137 233 -340q72 -197 72 -479q0 -258 -137 -407q-117 -126 -291 -126q-203 0 -322 158q-106 140 -106 360q0 252 136 396q116 123 292 123q173 0 274 -156l13 2q-60 268 -252 414l-270 -160l-46 64l248 145q-93 61 -254 111l72 88 q180 -72 281 -146zM571 957q-146 0 -227 -125q-72 -111 -72 -291q0 -209 92 -322q79 -97 205 -97q145 0 225 126q72 111 72 293q0 206 -92 319q-79 97 -203 97z"/>
<glyph horiz-adv-x="1188" unicode="ñ" glyph-name="ntilde" d="M848 1470q-9 -182 -125 -182q-48 0 -121 39q-80 39 -100 39q-53 0 -64 -78h-71q14 180 129 180q38 0 123 -41q76 -37 104 -37q42 0 55 80h70zM328 1069v-190q172 215 374 215q139 0 217 -87q70 -77 70 -202v-760h-129v707q0 227 -190 227q-178 0 -338 -213v-721h-127 v1024h123z"/>
<glyph horiz-adv-x="1149" unicode="ò" glyph-name="ograve" d="M530 1538l98 -276h-83l-179 276h164zM575 1094q205 0 326 -162q108 -145 108 -371q0 -262 -139 -412q-118 -129 -297 -129q-208 0 -328 164q-106 144 -106 371q0 262 138 411q118 128 298 128zM575 990q-152 0 -233 -128q-72 -113 -72 -303q0 -220 92 -336 q80 -99 211 -99q151 0 233 129q72 114 72 306q0 217 -92 332q-80 99 -211 99z"/>
<glyph horiz-adv-x="1149" unicode="ó" glyph-name="oacute" d="M628 1538h166l-180 -276h-82zM575 1094q205 0 326 -162q108 -145 108 -371q0 -262 -139 -412q-118 -129 -297 -129q-208 0 -328 164q-106 144 -106 371q0 262 138 411q118 128 298 128zM575 990q-152 0 -233 -128q-72 -113 -72 -303q0 -220 92 -336q80 -99 211 -99 q151 0 233 129q72 114 72 306q0 217 -92 332q-80 99 -211 99z"/>
<glyph horiz-adv-x="1149" unicode="ô" glyph-name="ocircumflex" d="M653 1538l176 -276h-84l-164 194l-161 -194h-84l178 276h139zM575 1094q205 0 326 -162q108 -145 108 -371q0 -262 -139 -412q-118 -129 -297 -129q-208 0 -328 164q-106 144 -106 371q0 262 138 411q118 128 298 128zM575 990q-152 0 -233 -128q-72 -113 -72 -303 q0 -220 92 -336q80 -99 211 -99q151 0 233 129q72 114 72 306q0 217 -92 332q-80 99 -211 99z"/>
<glyph horiz-adv-x="1149" unicode="õ" glyph-name="otilde" d="M819 1470q-9 -182 -125 -182q-48 0 -121 39q-76 37 -100 37q-54 0 -64 -76h-71q14 180 129 180q38 0 123 -41q76 -37 104 -37q42 0 55 80h70zM575 1094q205 0 326 -162q108 -145 108 -371q0 -262 -139 -412q-118 -129 -297 -129q-208 0 -328 164q-106 144 -106 371 q0 262 138 411q118 128 298 128zM575 990q-152 0 -233 -128q-72 -113 -72 -303q0 -220 92 -336q80 -99 211 -99q151 0 233 129q72 114 72 306q0 217 -92 332q-80 99 -211 99z"/>
<glyph horiz-adv-x="1149" unicode="ö" glyph-name="odieresis" d="M485 1456v-162h-156v162h156zM829 1456v-162h-155v162h155zM575 1094q205 0 326 -162q108 -145 108 -371q0 -262 -139 -412q-118 -129 -297 -129q-208 0 -328 164q-106 144 -106 371q0 262 138 411q118 128 298 128zM575 990q-152 0 -233 -128q-72 -113 -72 -303 q0 -220 92 -336q80 -99 211 -99q151 0 233 129q72 114 72 306q0 217 -92 332q-80 99 -211 99z"/>
<glyph horiz-adv-x="2048" unicode="÷" glyph-name="divide" d="M1024 486q54 0 89 -39q32 -34 32 -82q0 -53 -40 -91q-35 -32 -81 -32q-53 0 -91 42q-32 35 -32 81q0 55 42 91q35 30 81 30zM1022 1315q54 0 90 -39q33 -34 33 -82q0 -53 -42 -91q-35 -32 -81 -32q-51 0 -89 42q-32 36 -32 81q0 55 42 91q35 30 79 30zM1620 825v-92 h-1192v92h1192z"/>
<glyph horiz-adv-x="1149" unicode="ø" glyph-name="oslash" d="M276 147l-109 -129l-61 48l121 143q-88 143 -88 346q0 262 138 411q118 128 298 128q179 0 293 -123l108 127l62 -47l-121 -144q92 -137 92 -346q0 -262 -139 -413q-118 -128 -297 -128t-297 127zM350 233q77 -111 223 -111q154 0 236 129q73 114 73 308q0 147 -45 254z M796 883q-80 109 -221 109q-156 0 -238 -128q-71 -113 -71 -305q0 -155 43 -256z"/>
<glyph horiz-adv-x="1190" unicode="ù" glyph-name="ugrave" d="M547 1538l98 -276h-84l-178 276h164zM985 1069v-1024h-123v195q-69 -109 -178 -168q-94 -52 -194 -52q-138 0 -217 83q-74 76 -74 204v762h129v-723q0 -213 196 -213q95 0 193 69q85 60 141 150v717h127z"/>
<glyph horiz-adv-x="1190" unicode="ú" glyph-name="uacute" d="M645 1538h166l-180 -276h-82zM985 1069v-1024h-123v195q-69 -109 -178 -168q-94 -52 -194 -52q-138 0 -217 83q-74 76 -74 204v762h129v-723q0 -213 196 -213q95 0 193 69q85 60 141 150v717h127z"/>
<glyph horiz-adv-x="1190" unicode="û" glyph-name="ucircumflex" d="M668 1538l176 -276h-84l-164 194l-161 -194h-84l178 276h139zM985 1069v-1024h-123v195q-69 -109 -178 -168q-94 -52 -194 -52q-138 0 -217 83q-74 76 -74 204v762h129v-723q0 -213 196 -213q95 0 193 69q85 60 141 150v717h127z"/>
<glyph horiz-adv-x="1190" unicode="ü" glyph-name="udieresis" d="M506 1456v-162h-155v162h155zM850 1456v-162h-155v162h155zM985 1069v-1024h-123v195q-69 -109 -178 -168q-94 -52 -194 -52q-138 0 -217 83q-74 76 -74 204v762h129v-723q0 -213 196 -213q95 0 193 69q85 60 141 150v717h127z"/>
<glyph horiz-adv-x="1008" unicode="ý" glyph-name="yacute" d="M568 1538h165l-180 -278h-82zM928 1069l-387 -1077q-65 -184 -162 -257q-80 -61 -201 -61q-51 0 -92 8l-10 111q55 -12 102 -12q94 0 153 61q53 53 97 172l19 49l-365 1006h137l222 -660q20 -61 61 -206h10q15 43 37 114q23 71 31 97l217 655h131z"/>
<glyph horiz-adv-x="1176" unicode="þ" glyph-name="thorn" d="M330 1565v-658q121 189 307 189q189 0 300 -161q100 -144 100 -376q0 -262 -134 -413q-112 -126 -276 -126q-182 0 -295 189v-535h-127v1891h125zM332 780v-448q116 -203 277 -203q139 0 222 126q75 115 75 302q0 217 -91 332q-75 96 -194 96q-176 0 -289 -205z"/>
</font>
</defs>
</svg>
